<svg width="1401" height="391" viewBox="0 0 1401 391" fill="none" xmlns="http://www.w3.org/2000/svg">
<path d="M726.9 293H656.7L623.4 155.3L594 293H567L607.5 102.5H679.2L710.7 242L740.4 102.5H768L726.9 293Z" fill="#266867"/>
<path d="M758.1 164H821.7L834 252.2L877.8 164H909.6L841.5 293H778.8L758.1 164ZM947.588 293H886.687L913.988 164H975.488L947.588 293ZM983.288 124.7C983.288 129.3 982.288 133.3 980.288 136.7C978.488 140.1 975.988 143 972.788 145.4C969.788 147.8 966.288 149.6 962.288 150.8C958.288 152 954.188 152.6 949.988 152.6C941.988 152.6 935.288 150.7 929.888 146.9C924.488 143.1 921.788 137.1 921.788 128.9C921.788 124.5 922.688 120.6 924.488 117.2C926.288 113.6 928.688 110.7 931.688 108.5C934.888 106.1 938.488 104.3 942.488 103.1C946.688 101.9 950.988 101.3 955.388 101.3C963.188 101.3 969.788 103.2 975.188 107C980.588 110.8 983.288 116.7 983.288 124.7ZM1030.98 232.7C1030.18 237.1 1029.58 241.3 1029.18 245.3C1028.98 249.3 1028.88 252.9 1028.88 256.1C1028.88 257.9 1028.98 259.9 1029.18 262.1C1029.38 264.3 1029.78 266.4 1030.38 268.4C1031.18 270.2 1032.18 271.8 1033.38 273.2C1034.78 274.4 1036.68 275 1039.08 275C1040.88 275 1042.88 274.4 1045.08 273.2C1047.48 272 1049.78 270.3 1051.98 268.1C1054.38 265.9 1056.58 263.2 1058.58 260C1060.78 256.8 1062.48 253.2 1063.68 249.2H1112.88L1105.08 281.3C1101.08 283.9 1096.48 286.1 1091.28 287.9C1086.08 289.7 1080.58 291.2 1074.78 292.4C1068.98 293.4 1063.08 294.1 1057.08 294.5C1051.08 295.1 1045.38 295.4 1039.98 295.4C1029.98 295.4 1020.68 294.5 1012.08 292.7C1003.48 290.9 995.978 287.8 989.578 283.4C983.178 279 978.078 273.2 974.278 266C970.678 258.6 968.878 249.5 968.878 238.7C968.878 228.9 970.378 219.3 973.378 209.9C976.578 200.5 981.778 192.2 988.978 185C996.378 177.6 1006.18 171.7 1018.38 167.3C1030.78 162.9 1046.18 160.7 1064.58 160.7C1084.58 160.7 1099.58 163.8 1109.58 170C1119.78 176.2 1124.88 185.9 1124.88 199.1C1124.88 204.5 1124.08 210.4 1122.48 216.8C1120.88 223 1118.48 228.3 1115.28 232.7H1030.98ZM1070.88 197C1070.88 190.8 1069.88 186.6 1067.88 184.4C1065.88 182.2 1063.48 181.1 1060.68 181.1C1057.48 181.1 1054.48 182.2 1051.68 184.4C1049.08 186.4 1046.68 189.2 1044.48 192.8C1042.28 196.2 1040.28 200.2 1038.48 204.8C1036.68 209.2 1035.18 213.9 1033.98 218.9H1068.18C1068.58 216.5 1068.98 214 1069.38 211.4C1069.78 209.2 1070.08 206.8 1070.28 204.2C1070.68 201.6 1070.88 199.2 1070.88 197ZM1124.62 164H1188.22L1198.72 252.2L1235.02 164H1292.32L1302.52 252.2L1338.82 164H1370.62L1310.92 293H1248.22L1237.12 227.6L1206.82 293H1144.12L1124.62 164Z" fill="#F58800"/>
<path d="M497.142 90.0322L496.406 93.4934L499.828 93.9155C551.938 100.343 579.724 147.832 562.042 200.087C547.216 243.441 505.054 277.82 459.67 282.934L456.052 283.342L455.313 286.82L450.045 311.604L449.126 315.927L453.615 315.497C527.045 308.468 592.641 246.087 600.395 175.776C607.411 115.038 568.272 67.1135 507.685 61.1065L503.381 60.6798L502.462 65L499.936 76.8873L497.142 90.0322ZM364.694 281.638L360.816 284.666L363.659 287.47C379.991 303.579 402.175 313.677 427.245 316.362L431.573 316.825L432.498 312.471L437.766 287.687L438.499 284.239L435.094 283.805C418.269 281.665 403.263 274.883 391.715 264.4L389.429 262.325L386.437 264.661L364.694 281.638ZM418.417 113.695L420.407 116.259L423.726 114.026C439.636 103.32 457.548 96.413 475.482 94.031L479.029 93.56L479.753 90.1561L485.021 65.3718L485.937 61.0598L481.461 61.4776C455.451 63.9049 429.066 73.4902 405.723 89.6211L401.823 92.3167L404.181 95.3546L418.417 113.695ZM403.033 130.251L405.816 127.519L403.823 125.06L389.455 107.339L386.996 104.306L383.492 107.609C362.851 127.067 348.013 150.731 340.079 175.76L338.713 180.07H343.143H368.505H372.005L373.191 176.677C379.104 159.758 389.345 143.689 403.033 130.251ZM368.269 200.449L368.552 197.029H365.027H339.665H335.235L334.769 201.34C332.06 226.392 337.106 250.04 349.195 269.467L351.287 272.829L355.07 269.75L376.844 252.03L379.848 249.585L378.26 246.866C370.393 233.404 366.87 217.333 368.269 200.449ZM426.304 244.314L424.641 252.135L432.037 247.446L519.978 191.681L524.916 188.55L521.309 185.419L457.074 129.654L451.672 124.964L450.01 132.785L426.304 244.314Z" fill="#F58800" stroke="#F58800" stroke-width="8"/>
<path d="M96.3 210.8C102.3 210.8 107.3 208.3 111.3 203.3C115.5 198.3 118.9 192.2 121.5 185C124.3 177.8 126.3 170.3 127.5 162.5C128.7 154.7 129.3 147.9 129.3 142.1C129.3 136.7 128.4 132.2 126.6 128.6C124.8 124.8 120.9 122.9 114.9 122.9H101.4L82.5 210.8H96.3ZM78.3 230L64.8 293H0L40.5 102.5H109.8C121.2 102.5 131.6 103.1 141 104.3C150.4 105.5 158.5 107.9 165.3 111.5C172.1 115.1 177.4 120.3 181.2 127.1C185 133.7 186.9 142.6 186.9 153.8C186.9 164.2 185.2 174.1 181.8 183.5C178.6 192.7 173.3 200.8 165.9 207.8C158.7 214.6 149.3 220 137.7 224C126.1 228 112 230 95.4 230H78.3ZM354.783 147.8C354.783 159.6 351.483 170.5 344.883 180.5C338.283 190.5 327.383 198.1 312.183 203.3L346.983 293H280.083L253.683 209.9H250.383L232.683 293H167.883L208.383 102.5H287.283C296.483 102.5 305.183 103.1 313.383 104.3C321.583 105.3 328.683 107.5 334.683 110.9C340.883 114.1 345.783 118.7 349.383 124.7C352.983 130.5 354.783 138.2 354.783 147.8ZM268.383 190.7C273.583 190.7 277.983 189 281.583 185.6C285.383 182 288.383 177.7 290.583 172.7C292.983 167.7 294.683 162.4 295.683 156.8C296.683 151 297.183 146 297.183 141.8C297.183 136.6 296.283 132.2 294.483 128.6C292.683 124.8 288.783 122.9 282.783 122.9H269.283L254.283 190.7H268.383Z" fill="#266867"/>
</svg>
