<svg width="1376" height="391" viewBox="0 0 1376 391" fill="none" xmlns="http://www.w3.org/2000/svg">
<path d="M733.1 164H796.7L809 252.2L852.8 164H884.6L816.5 293H753.8L733.1 164ZM922.588 293H861.687L888.988 164H950.488L922.588 293ZM958.288 124.7C958.288 129.3 957.288 133.3 955.288 136.7C953.488 140.1 950.988 143 947.788 145.4C944.788 147.8 941.288 149.6 937.288 150.8C933.288 152 929.188 152.6 924.988 152.6C916.988 152.6 910.288 150.7 904.888 146.9C899.488 143.1 896.788 137.1 896.788 128.9C896.788 124.5 897.688 120.6 899.488 117.2C901.288 113.6 903.688 110.7 906.688 108.5C909.888 106.1 913.488 104.3 917.488 103.1C921.688 101.9 925.988 101.3 930.388 101.3C938.188 101.3 944.788 103.2 950.188 107C955.588 110.8 958.288 116.7 958.288 124.7ZM1005.98 232.7C1005.18 237.1 1004.58 241.3 1004.18 245.3C1003.98 249.3 1003.88 252.9 1003.88 256.1C1003.88 257.9 1003.98 259.9 1004.18 262.1C1004.38 264.3 1004.78 266.4 1005.38 268.4C1006.18 270.2 1007.18 271.8 1008.38 273.2C1009.78 274.4 1011.68 275 1014.08 275C1015.88 275 1017.88 274.4 1020.08 273.2C1022.48 272 1024.78 270.3 1026.98 268.1C1029.38 265.9 1031.58 263.2 1033.58 260C1035.78 256.8 1037.48 253.2 1038.68 249.2H1087.88L1080.08 281.3C1076.08 283.9 1071.48 286.1 1066.28 287.9C1061.08 289.7 1055.58 291.2 1049.78 292.4C1043.98 293.4 1038.08 294.1 1032.08 294.5C1026.08 295.1 1020.38 295.4 1014.98 295.4C1004.98 295.4 995.678 294.5 987.078 292.7C978.478 290.9 970.978 287.8 964.578 283.4C958.178 279 953.078 273.2 949.278 266C945.678 258.6 943.878 249.5 943.878 238.7C943.878 228.9 945.378 219.3 948.378 209.9C951.578 200.5 956.778 192.2 963.978 185C971.378 177.6 981.178 171.7 993.378 167.3C1005.78 162.9 1021.18 160.7 1039.58 160.7C1059.58 160.7 1074.58 163.8 1084.58 170C1094.78 176.2 1099.88 185.9 1099.88 199.1C1099.88 204.5 1099.08 210.4 1097.48 216.8C1095.88 223 1093.48 228.3 1090.28 232.7H1005.98ZM1045.88 197C1045.88 190.8 1044.88 186.6 1042.88 184.4C1040.88 182.2 1038.48 181.1 1035.68 181.1C1032.48 181.1 1029.48 182.2 1026.68 184.4C1024.08 186.4 1021.68 189.2 1019.48 192.8C1017.28 196.2 1015.28 200.2 1013.48 204.8C1011.68 209.2 1010.18 213.9 1008.98 218.9H1043.18C1043.58 216.5 1043.98 214 1044.38 211.4C1044.78 209.2 1045.08 206.8 1045.28 204.2C1045.68 201.6 1045.88 199.2 1045.88 197ZM1099.62 164H1163.22L1173.72 252.2L1210.02 164H1267.32L1277.52 252.2L1313.82 164H1345.62L1285.92 293H1223.22L1212.12 227.6L1181.82 293H1119.12L1099.62 164Z" fill="#F58800"/>
<path d="M724.9 293H654.7L621.4 155.3L592 293H565L605.5 102.5H677.2L708.7 242L738.4 102.5H766L724.9 293Z" fill="white"/>
<path d="M495.142 110.032L494.406 113.493L497.828 113.916C549.938 120.343 577.724 167.832 560.042 220.087C545.216 263.441 503.054 297.82 457.67 302.934L454.052 303.342L453.313 306.82L448.045 331.604L447.126 335.927L451.615 335.497C525.045 328.468 590.641 266.087 598.395 195.776C605.411 135.038 566.272 87.1135 505.685 81.1065L501.381 80.6798L500.462 85L497.936 96.8873L495.142 110.032ZM362.694 301.638L358.816 304.666L361.659 307.47C377.991 323.579 400.175 333.677 425.245 336.362L429.573 336.825L430.498 332.471L435.766 307.687L436.499 304.239L433.094 303.805C416.269 301.665 401.263 294.883 389.715 284.4L387.429 282.325L384.437 284.661L362.694 301.638ZM416.417 133.695L418.407 136.259L421.726 134.026C437.636 123.32 455.548 116.413 473.482 114.031L477.029 113.56L477.753 110.156L483.021 85.3718L483.937 81.0598L479.461 81.4776C453.451 83.9049 427.066 93.4902 403.723 109.621L399.823 112.317L402.181 115.355L416.417 133.695ZM401.033 150.251L403.816 147.519L401.823 145.06L387.455 127.339L384.996 124.306L381.492 127.609C360.851 147.067 346.013 170.731 338.079 195.76L336.713 200.07H341.143H366.505H370.005L371.191 196.677C377.104 179.758 387.345 163.689 401.033 150.251ZM366.269 220.449L366.552 217.029H363.027H337.665H333.235L332.769 221.34C330.06 246.392 335.106 270.04 347.195 289.467L349.287 292.829L353.07 289.75L374.844 272.03L377.848 269.585L376.26 266.866C368.393 253.404 364.87 237.333 366.269 220.449ZM424.304 264.314L422.641 272.135L430.037 267.446L517.978 211.681L522.916 208.55L519.309 205.419L455.074 149.654L449.672 144.964L448.01 152.785L424.304 264.314Z" fill="#F58800" stroke="#F58800" stroke-width="8"/>
<path d="M96.3 210.8C102.3 210.8 107.3 208.3 111.3 203.3C115.5 198.3 118.9 192.2 121.5 185C124.3 177.8 126.3 170.3 127.5 162.5C128.7 154.7 129.3 147.9 129.3 142.1C129.3 136.7 128.4 132.2 126.6 128.6C124.8 124.8 120.9 122.9 114.9 122.9H101.4L82.5 210.8H96.3ZM78.3 230L64.8 293H0L40.5 102.5H109.8C121.2 102.5 131.6 103.1 141 104.3C150.4 105.5 158.5 107.9 165.3 111.5C172.1 115.1 177.4 120.3 181.2 127.1C185 133.7 186.9 142.6 186.9 153.8C186.9 164.2 185.2 174.1 181.8 183.5C178.6 192.7 173.3 200.8 165.9 207.8C158.7 214.6 149.3 220 137.7 224C126.1 228 112 230 95.4 230H78.3ZM354.783 147.8C354.783 159.6 351.483 170.5 344.883 180.5C338.283 190.5 327.383 198.1 312.183 203.3L346.983 293H280.083L253.683 209.9H250.383L232.683 293H167.883L208.383 102.5H287.283C296.483 102.5 305.183 103.1 313.383 104.3C321.583 105.3 328.683 107.5 334.683 110.9C340.883 114.1 345.783 118.7 349.383 124.7C352.983 130.5 354.783 138.2 354.783 147.8ZM268.383 190.7C273.583 190.7 277.983 189 281.583 185.6C285.383 182 288.383 177.7 290.583 172.7C292.983 167.7 294.683 162.4 295.683 156.8C296.683 151 297.183 146 297.183 141.8C297.183 136.6 296.283 132.2 294.483 128.6C292.683 124.8 288.783 122.9 282.783 122.9H269.283L254.283 190.7H268.383Z" fill="white"/>
</svg>
